<svg width="500" height="195" viewBox="0 0 500 195" fill="none" xmlns="http://www.w3.org/2000/svg">
<path d="M472.85 56.79L479.22 62.69L477.34 64.88L470.97 58.93C466.93 63 462.67 65.04 458.18 65.04C454.77 65.04 451.93 64 449.67 61.91C447.44 59.82 446.33 57.25 446.33 54.18C446.33 49.48 449.03 45.67 454.42 42.75C452.58 40.21 451.65 37.62 451.65 34.97C451.65 32.32 452.56 29.94 454.37 28.13C456.21 26.29 458.41 25.36 460.95 25.36C463.17 25.36 465.11 26.07 466.74 27.5C468.34 28.89 469.14 30.7 469.14 32.93C469.14 35.47 468.03 37.61 465.8 39.35C464.93 40.05 463.96 40.71 462.88 41.33C462.11 41.82 460.91 42.44 459.28 43.21L458.65 43.52C459.48 44.46 460.46 45.43 461.57 46.44L470.7 54.84C471.95 53.41 473.38 51.43 474.98 48.89L477.22 50.61C475.86 52.84 474.4 54.89 472.84 56.77L472.85 56.79ZM458.45 62.27C462 62.27 465.48 60.51 468.89 57L459.29 48.02C458.14 46.98 457.1 45.93 456.16 44.89C453.93 46.18 452.26 47.55 451.15 49.01C450.04 50.47 449.48 52.16 449.48 54.07C449.48 56.44 450.31 58.4 451.98 59.97C453.68 61.5 455.84 62.27 458.45 62.27ZM461 27.93C459.19 27.93 457.66 28.61 456.41 29.97C455.19 31.36 454.58 33.01 454.58 34.93C454.58 37.05 455.36 39.25 456.93 41.51L459.8 40.1C460.15 39.93 460.93 39.47 462.15 38.74C463.26 38.01 463.99 37.45 464.34 37.07C465.56 35.71 466.17 34.37 466.17 33.05C466.17 31.62 465.67 30.41 464.68 29.42C463.69 28.43 462.46 27.93 461 27.93Z" fill="currentColor"/>
<path d="M126.11 115.55L103.85 172.43L79.81 115.55H73.9L75.36 119.06L78.36 126.32L84.21 140.38L90.3 155.09L102.21 183.66H105.53L132.95 115.55H126.11Z" fill="currentColor"/>
<path d="M56.6501 156.79V156.75L40.3801 115.55H33.4501L61.0501 183.66H67.2401L65.8801 180.15L62.8801 172.5L56.6501 156.79Z" fill="currentColor"/>
<path d="M162.26 183.67V115.55H167.88V183.67H162.26Z" fill="currentColor"/>
<path d="M235.26 184.69C225.43 184.69 217.16 181.43 210.47 174.92C203.71 168.34 200.33 159.99 200.33 149.85C200.33 139.71 203.74 131.05 210.56 124.41C217.44 117.71 225.74 114.36 235.45 114.36C241.72 114.36 247.49 115.77 252.78 118.6C258.12 121.37 262.21 124.99 265.04 129.48L260.71 132.71C258.13 128.78 254.58 125.65 250.06 123.31C245.55 120.98 240.67 119.81 235.45 119.81C227.09 119.81 220.09 122.64 214.44 128.29C208.85 133.88 206.05 141.04 206.05 149.77C206.05 158.5 208.82 165.47 214.35 171.06C219.94 176.59 226.95 179.36 235.37 179.36C240.47 179.36 245.28 178.24 249.79 176C254.31 173.76 258.04 170.67 260.99 166.74L265.05 170.06C261.73 174.61 257.46 178.19 252.24 180.8C247.02 183.41 241.36 184.72 235.28 184.72L235.26 184.69Z" fill="currentColor"/>
<path d="M344.76 183.67H337.57L311.11 151.78L301.34 163.21V183.67H295.72V115.55H301.34V155.37L335.35 115.55H342.17L314.88 147.72L344.74 183.67H344.76Z" fill="currentColor"/>
<path d="M412.98 183.67H371.78V115.55H412.8V120.9H377.4V146.52H410.4V151.77H377.4V178.32H412.98V183.67Z" fill="currentColor"/>
<path d="M489.11 183.67H482.29L464.87 154.91H451.23V183.67H445.61V115.55H466.16C473.1 115.55 478.42 117.52 482.11 121.45C485.86 125.26 487.73 129.87 487.73 135.28C487.73 139.89 486.26 143.98 483.31 147.54C480.48 151.04 476.33 153.32 470.87 154.36L489.12 183.67H489.11ZM466.25 120.9H451.23V149.57H464.87C470.28 149.57 474.47 148.25 477.45 145.61C480.43 142.97 481.92 139.47 481.92 135.1C481.92 130.73 480.51 127.43 477.68 124.82C474.85 122.21 471.04 120.9 466.25 120.9Z" fill="currentColor"/>
<path d="M30.64 79.31V16.63H10V11.19H56.92V16.63H36.27V79.31H30.65H30.64Z" fill="currentColor"/>
<path d="M102.08 11.19H99.03L71.85 79.3H78.03L84.17 63.62L87.99 53.39H87.95L88.95 50.84L100.49 21.22L111.84 50.6L112.92 53.38L114.77 58.67L117.47 65.5L122.88 79.28H129.06L102.07 11.17L102.08 11.19Z" fill="currentColor"/>
<path d="M173.05 80.42C168.13 80.42 163.68 79.19 159.69 76.73C155.69 74.27 152.68 70.77 150.66 66.22L155.18 63.18C156.9 66.93 159.28 69.85 162.32 71.94C165.36 74.03 168.88 75.07 172.87 75.07C177.48 75.07 181.23 73.81 184.12 71.29C187 68.77 188.45 65.64 188.45 61.89C188.45 59.31 187.71 57.11 186.24 55.3C184.77 53.49 182.52 51.81 179.51 50.28C177.55 49.3 175.21 48.22 172.51 47.05C169.07 45.52 166.82 44.47 165.78 43.92C158.04 40.05 154.17 34.64 154.17 27.7C154.17 22.6 155.95 18.39 159.52 15.07C163.08 11.69 167.82 10 173.71 10C181.82 10 188.24 13.38 192.97 20.14L188.73 23.55C184.86 18.02 179.88 15.25 173.8 15.25C169.74 15.25 166.44 16.37 163.89 18.62C161.34 20.86 160.07 23.8 160.07 27.42C160.07 32.09 162.8 35.87 168.27 38.76C169.8 39.56 172.29 40.73 175.74 42.26C179.55 43.92 182.13 45.12 183.48 45.85C190.8 49.85 194.45 55.13 194.45 61.7C194.45 67.23 192.39 71.75 188.28 75.25C184.16 78.69 179.09 80.41 173.07 80.41L173.05 80.42Z" fill="currentColor"/>
<path d="M242.27 80.42C237.35 80.42 232.9 79.19 228.91 76.73C224.91 74.27 221.9 70.77 219.88 66.22L224.4 63.18C226.12 66.93 228.5 69.85 231.54 71.94C234.58 74.03 238.1 75.07 242.09 75.07C246.7 75.07 250.45 73.81 253.34 71.29C256.22 68.77 257.67 65.64 257.67 61.89C257.67 59.31 256.93 57.11 255.46 55.3C253.99 53.49 251.74 51.81 248.73 50.28C246.77 49.3 244.43 48.22 241.73 47.05C238.29 45.52 236.04 44.47 235 43.92C227.26 40.05 223.39 34.64 223.39 27.7C223.39 22.6 225.17 18.39 228.74 15.07C232.3 11.69 237.04 10 242.93 10C251.04 10 257.46 13.38 262.19 20.14L257.95 23.55C254.08 18.02 249.1 15.25 243.02 15.25C238.96 15.25 235.66 16.37 233.11 18.62C230.56 20.86 229.29 23.8 229.29 27.42C229.29 32.09 232.02 35.87 237.49 38.76C239.02 39.56 241.51 40.73 244.96 42.26C248.77 43.92 251.35 45.12 252.7 45.85C260.02 49.85 263.67 55.13 263.67 61.7C263.67 67.23 261.61 71.75 257.5 75.25C253.38 78.69 248.31 80.41 242.29 80.41L242.27 80.42Z" fill="currentColor"/>
<path d="M336.66 79.31H295.46V11.19H336.48V16.54H301.08V42.16H334.08V47.41H301.08V73.96H336.66V79.31Z" fill="currentColor"/>
<path d="M412.98 79.31H369.29V11.19H374.91V73.87H412.98V79.31Z" fill="currentColor"/>
<path d="M112.93 53.39L111.85 50.61H111.89L112.93 53.39Z" fill="currentColor"/>
</svg>
