<svg width="1114" height="111" viewBox="0 0 1114 111" fill="none" xmlns="http://www.w3.org/2000/svg">
    <defs>
        <style>
            .letter-path {
            stroke: currentColor;
            stroke-width: 1.5;
            fill: none;
            stroke-linecap: round;
            stroke-linejoin: round;
            stroke-dasharray: 2000;
            stroke-dashoffset: 2000;
            animation: drawPath 6s ease-in-out infinite;
            }

            .letter-t { animation-delay: 0s; }
            .letter-a { animation-delay: 0.3s; }
            .letter-a-detail { animation-delay: 0.3s; }
            .letter-s1 { animation-delay: 0.6s; }
            .letter-s2 { animation-delay: 0.9s; }
            .letter-e { animation-delay: 1.2s; }
            .letter-l { animation-delay: 1.5s; }
            .letter-ampersand { animation-delay: 1.8s; }
            .letter-w { animation-delay: 2.1s; }
            .letter-i { animation-delay: 2.4s; }
            .letter-c { animation-delay: 2.7s; }
            .letter-k { animation-delay: 3.0s; }
            .letter-e2 { animation-delay: 3.3s; }
            .letter-e3 { animation-delay: 3.6s; }
            .letter-r { animation-delay: 3.9s; }

            @keyframes drawPath {
            0% {
            stroke-dashoffset: 2000;
            }
            70% {
            stroke-dashoffset: 0;
            }
            85% {
            stroke-dashoffset: 0;
            }
            100% {
            stroke-dashoffset: 1000;
            }
            }
        </style>
    </defs>

    <g clip-path="url(#clip0_1_23)">
        <!-- T -->
        <path class="letter-path letter-t"
            d="M20.64 89.31V26.63H0V21.19H46.92V26.63H26.27V89.31H20.65H20.64Z" />

        <!-- A -->
        <path class="letter-path letter-a"
            d="M92.08 21.19H89.03L61.85 89.3H68.03L74.17 73.62L77.99 63.39H77.95L78.95 60.84L90.49 31.22L101.84 60.6L102.92 63.38L104.77 68.67L107.47 75.5L112.88 89.28H119.06L92.07 21.17L92.08 21.19Z" />
        <path class="letter-path letter-a-detail"
            d="M102.93 63.39L101.85 60.61H101.89L102.93 63.39Z" />

        <!-- S -->
        <path class="letter-path letter-s1"
            d="M163.05 90.42C158.13 90.42 153.68 89.19 149.69 86.73C145.69 84.27 142.68 80.77 140.66 76.22L145.18 73.18C146.9 76.93 149.28 79.85 152.32 81.94C155.36 84.03 158.88 85.07 162.87 85.07C167.48 85.07 171.23 83.81 174.12 81.29C177 78.77 178.45 75.64 178.45 71.89C178.45 69.31 177.71 67.11 176.24 65.3C174.77 63.49 172.52 61.81 169.51 60.28C167.55 59.3 165.21 58.22 162.51 57.05C159.07 55.52 156.82 54.47 155.78 53.92C148.04 50.05 144.17 44.64 144.17 37.7C144.17 32.6 145.95 28.39 149.52 25.07C153.08 21.69 157.82 20 163.71 20C171.82 20 178.24 23.38 182.97 30.14L178.73 33.55C174.86 28.02 169.88 25.25 163.8 25.25C159.74 25.25 156.44 26.37 153.89 28.62C151.34 30.86 150.07 33.8 150.07 37.42C150.07 42.09 152.8 45.87 158.27 48.76C159.8 49.56 162.29 50.73 165.74 52.26C169.55 53.92 172.13 55.12 173.48 55.85C180.8 59.85 184.45 65.13 184.45 71.7C184.45 77.23 182.39 81.75 178.28 85.25C174.16 88.69 169.09 90.41 163.07 90.41L163.05 90.42Z" />

        <!-- S -->
        <path class="letter-path letter-s2"
            d="M232.27 90.42C227.35 90.42 222.9 89.19 218.91 86.73C214.91 84.27 211.9 80.77 209.88 76.22L214.4 73.18C216.12 76.93 218.5 79.85 221.54 81.94C224.58 84.03 228.1 85.07 232.09 85.07C236.7 85.07 240.45 83.81 243.34 81.29C246.22 78.77 247.67 75.64 247.67 71.89C247.67 69.31 246.93 67.11 245.46 65.3C243.99 63.49 241.74 61.81 238.73 60.28C236.77 59.3 234.43 58.22 231.73 57.05C228.29 55.52 226.04 54.47 225 53.92C217.26 50.05 213.39 44.64 213.39 37.7C213.39 32.6 215.17 28.39 218.74 25.07C222.3 21.69 227.04 20 232.93 20C241.04 20 247.46 23.38 252.19 30.14L247.95 33.55C244.08 28.02 239.1 25.25 233.02 25.25C228.96 25.25 225.66 26.37 223.11 28.62C220.56 30.86 219.29 33.8 219.29 37.42C219.29 42.09 222.02 45.87 227.49 48.76C229.02 49.56 231.51 50.73 234.96 52.26C238.77 53.92 241.35 55.12 242.7 55.85C250.02 59.85 253.67 65.13 253.67 71.7C253.67 77.23 251.61 81.75 247.5 85.25C243.38 88.69 238.31 90.41 232.29 90.41L232.27 90.42Z" />

        <!-- E -->
        <path class="letter-path letter-e"
            d="M326.66 89.31H285.46V21.19H326.48V26.54H291.08V52.16H324.08V57.41H291.08V83.96H326.66V89.31Z" />

        <!-- L -->
        <path class="letter-path letter-l" d="M402.98 89.31H359.29V21.19H364.91V83.87H402.98V89.31Z" />

        <!-- & -->
        <path class="letter-path letter-ampersand"
            d="M547.328 75.0719L557.98 85.1828L554.836 88.9358L544.184 78.7392C537.428 85.714 530.304 89.21 522.796 89.21C517.094 89.21 512.344 87.4277 508.565 83.8461C504.836 80.2644 502.98 75.8602 502.98 70.5991C502.98 62.5447 507.495 56.0155 516.508 51.0114C513.431 46.6586 511.876 42.2201 511.876 37.6788C511.876 33.1374 513.398 29.0588 516.425 25.957C519.502 22.8038 523.181 21.21 527.428 21.21C531.141 21.21 534.385 22.4268 537.11 24.8774C539.786 27.2594 541.124 30.3612 541.124 34.1828C541.124 38.5356 539.268 42.203 535.539 45.1848C534.084 46.3844 532.462 47.5154 530.656 48.5779C529.368 49.4177 527.361 50.4802 524.635 51.7997L523.582 52.331C524.97 53.9418 526.609 55.6042 528.465 57.335L543.733 71.7302C545.823 69.2796 548.214 65.8864 550.89 61.5336L554.635 64.4812C552.361 68.3027 549.92 71.8158 547.311 75.0376L547.328 75.0719ZM523.248 84.463C529.184 84.463 535.003 81.4469 540.706 75.4318L524.652 60.0427C522.729 58.2604 520.99 56.461 519.418 54.6787C515.689 56.8894 512.896 59.2372 511.04 61.7393C509.184 64.2413 508.247 67.1374 508.247 70.4106C508.247 74.4721 509.635 77.831 512.428 80.5215C515.271 83.1435 518.883 84.463 523.248 84.463ZM527.512 25.6143C524.485 25.6143 521.926 26.7796 519.836 29.1102C517.796 31.4923 516.776 34.3199 516.776 37.6102C516.776 41.2433 518.08 45.0135 520.706 48.8864L525.505 46.4701C526.09 46.1788 527.395 45.3904 529.435 44.1394C531.291 42.8884 532.512 41.9288 533.097 41.2776C535.137 38.9469 536.157 36.6505 536.157 34.3884C536.157 31.9378 535.321 29.8642 533.666 28.1677C532.01 26.4711 529.953 25.6143 527.512 25.6143Z" />

        <!-- W -->
        <path class="letter-path letter-w"
            d="M750.64 21.22L728.38 78.1L704.34 21.22H698.43L699.89 24.73L702.89 31.99L708.74 46.05L714.83 60.76L726.74 89.33H730.06L757.48 21.22H750.64Z" />

        <!-- I -->
        <path class="letter-path letter-i"
            d="M681.18 62.46V62.42L664.91 21.22H657.98L685.58 89.33H691.77L690.41 85.82L687.41 78.17L681.18 62.46Z" />

        <!-- C -->
        <path class="letter-path letter-c" d="M786.79 89.34V21.22H792.41V89.34H786.79Z" />

        <!-- K -->
        <path class="letter-path letter-k"
            d="M859.79 90.36C849.96 90.36 841.69 87.1 835 80.59C828.24 74.01 824.86 65.66 824.86 55.52C824.86 45.38 828.27 36.72 835.09 30.08C841.97 23.38 850.27 20.03 859.98 20.03C866.25 20.03 872.02 21.44 877.31 24.27C882.65 27.04 886.74 30.66 889.57 35.15L885.24 38.38C882.66 34.45 879.11 31.32 874.59 28.98C870.08 26.65 865.2 25.48 859.98 25.48C851.62 25.48 844.62 28.31 838.97 33.96C833.38 39.55 830.58 46.71 830.58 55.44C830.58 64.17 833.35 71.14 838.88 76.73C844.47 82.26 851.48 85.03 859.9 85.03C865 85.03 869.81 83.91 874.32 81.67C878.84 79.43 882.57 76.34 885.52 72.41L889.58 75.73C886.26 80.28 881.99 83.86 876.77 86.47C871.55 89.08 865.89 90.39 859.81 90.39L859.79 90.36Z" />

        <!-- E -->
        <path class="letter-path letter-e2"
            d="M969.29 89.34H962.1L935.64 57.45L925.87 68.88V89.34H920.25V21.22H925.87V61.04L959.88 21.22H966.7L939.41 53.39L969.27 89.34H969.29Z" />
        <!-- E -->
        <path class="letter-path letter-e3"
            d="M1037.51 89.34H996.31V21.22H1037.33V26.57H1001.93V52.19H1034.93V57.44H1001.93V83.99H1037.51V89.34Z" />

        <!-- R -->
        <path class="letter-path letter-r"
            d="M1113.64 89.34H1106.82L1089.4 60.58H1075.76V89.34H1070.14V21.22H1090.69C1097.63 21.22 1102.95 23.19 1106.64 27.12C1110.39 30.93 1112.26 35.54 1112.26 40.95C1112.26 45.56 1110.79 49.65 1107.84 53.21C1105.01 56.71 1100.86 58.99 1095.4 60.03L1113.65 89.34H1113.64ZM1090.78 26.57H1075.76V55.24H1089.4C1094.81 55.24 1099 53.92 1101.98 51.28C1104.96 48.64 1106.45 45.14 1106.45 40.77C1106.45 36.4 1105.04 33.1 1102.21 30.49C1099.38 27.88 1095.57 26.57 1090.78 26.57Z" />
    </g>

    <defs>
        <clipPath id="clip0_1_23">
            <rect width="1113.65" height="110.42" fill="white" />
        </clipPath>
    </defs>
</svg>