<svg width="617" height="617" viewBox="0 0 617 617" fill="none" xmlns="http://www.w3.org/2000/svg">
<rect width="617" height="617" rx="308.5" fill="#4C062C"/>
<path d="M531.79 267.93L538.16 273.83L536.28 276.02L529.91 270.07C525.87 274.14 521.61 276.18 517.12 276.18C513.71 276.18 510.87 275.14 508.61 273.05C506.38 270.96 505.27 268.39 505.27 265.32C505.27 260.62 507.97 256.81 513.36 253.89C511.52 251.35 510.59 248.76 510.59 246.11C510.59 243.46 511.5 241.08 513.31 239.27C515.15 237.43 517.35 236.5 519.89 236.5C522.11 236.5 524.05 237.21 525.68 238.64C527.28 240.03 528.08 241.84 528.08 244.07C528.08 246.61 526.97 248.75 524.74 250.49C523.87 251.19 522.9 251.85 521.82 252.47C521.05 252.96 519.85 253.58 518.22 254.35L517.59 254.66C518.42 255.6 519.4 256.57 520.51 257.58L529.64 265.98C530.89 264.55 532.32 262.57 533.92 260.03L536.16 261.75C534.8 263.98 533.34 266.03 531.78 267.91L531.79 267.93ZM517.39 273.41C520.94 273.41 524.42 271.65 527.83 268.14L518.23 259.16C517.08 258.12 516.04 257.07 515.1 256.03C512.87 257.32 511.2 258.69 510.09 260.15C508.98 261.61 508.42 263.3 508.42 265.21C508.42 267.58 509.25 269.54 510.92 271.11C512.62 272.64 514.78 273.41 517.39 273.41ZM519.94 239.07C518.13 239.07 516.6 239.75 515.35 241.11C514.13 242.5 513.52 244.15 513.52 246.07C513.52 248.19 514.3 250.39 515.87 252.65L518.74 251.24C519.09 251.07 519.87 250.61 521.09 249.88C522.2 249.15 522.93 248.59 523.28 248.21C524.5 246.85 525.11 245.51 525.11 244.19C525.11 242.76 524.61 241.55 523.62 240.56C522.63 239.57 521.4 239.07 519.94 239.07Z" fill="white"/>
<path d="M185.05 326.69L162.79 383.57L138.75 326.69H132.84L134.3 330.2L137.3 337.46L143.15 351.52L149.24 366.23L161.15 394.8H164.47L191.89 326.69H185.05Z" fill="white"/>
<path d="M115.59 367.93V367.89L99.3201 326.69H92.3901L119.99 394.8H126.18L124.82 391.29L121.82 383.64L115.59 367.93Z" fill="white"/>
<path d="M221.2 394.81V326.69H226.82V394.81H221.2Z" fill="white"/>
<path d="M294.2 395.83C284.37 395.83 276.1 392.57 269.41 386.06C262.65 379.48 259.27 371.13 259.27 360.99C259.27 350.85 262.68 342.19 269.5 335.55C276.38 328.85 284.68 325.5 294.39 325.5C300.66 325.5 306.43 326.91 311.72 329.74C317.06 332.51 321.15 336.13 323.98 340.62L319.65 343.85C317.07 339.92 313.52 336.79 309 334.45C304.49 332.12 299.61 330.95 294.39 330.95C286.03 330.95 279.03 333.78 273.38 339.43C267.79 345.02 264.99 352.18 264.99 360.91C264.99 369.64 267.76 376.61 273.29 382.2C278.88 387.73 285.89 390.5 294.31 390.5C299.41 390.5 304.22 389.38 308.73 387.14C313.25 384.9 316.98 381.81 319.93 377.88L323.99 381.2C320.67 385.75 316.4 389.33 311.18 391.94C305.96 394.55 300.3 395.86 294.22 395.86L294.2 395.83Z" fill="white"/>
<path d="M403.7 394.81H396.51L370.05 362.92L360.28 374.35V394.81H354.66V326.69H360.28V366.51L394.29 326.69H401.11L373.82 358.86L403.68 394.81H403.7Z" fill="white"/>
<path d="M471.92 394.81H430.72V326.69H471.74V332.04H436.34V357.66H469.34V362.91H436.34V389.46H471.92V394.81Z" fill="white"/>
<path d="M548.05 394.81H541.23L523.81 366.05H510.17V394.81H504.55V326.69H525.1C532.04 326.69 537.36 328.66 541.05 332.59C544.8 336.4 546.67 341.01 546.67 346.42C546.67 351.03 545.2 355.12 542.25 358.68C539.42 362.18 535.27 364.46 529.81 365.5L548.06 394.81H548.05ZM525.19 332.04H510.17V360.71H523.81C529.22 360.71 533.41 359.39 536.39 356.75C539.37 354.11 540.86 350.61 540.86 346.24C540.86 341.87 539.45 338.57 536.62 335.96C533.79 333.35 529.98 332.04 525.19 332.04Z" fill="white"/>
<path d="M89.5799 290.45V227.77H68.9399V222.33H115.86V227.77H95.2099V290.45H89.5899H89.5799Z" fill="white"/>
<path d="M161.02 222.33H157.97L130.79 290.44H136.97L143.11 274.76L146.93 264.53H146.89L147.89 261.98L159.43 232.36L170.78 261.74L171.86 264.52L173.71 269.81L176.41 276.64L181.82 290.42H188L161.01 222.31L161.02 222.33Z" fill="white"/>
<path d="M231.99 291.56C227.07 291.56 222.62 290.33 218.63 287.87C214.63 285.41 211.62 281.91 209.6 277.36L214.12 274.32C215.84 278.07 218.22 280.99 221.26 283.08C224.3 285.17 227.82 286.21 231.81 286.21C236.42 286.21 240.17 284.95 243.06 282.43C245.94 279.91 247.39 276.78 247.39 273.03C247.39 270.45 246.65 268.25 245.18 266.44C243.71 264.63 241.46 262.95 238.45 261.42C236.49 260.44 234.15 259.36 231.45 258.19C228.01 256.66 225.76 255.61 224.72 255.06C216.98 251.19 213.11 245.78 213.11 238.84C213.11 233.74 214.89 229.53 218.46 226.21C222.02 222.83 226.76 221.14 232.65 221.14C240.76 221.14 247.18 224.52 251.91 231.28L247.67 234.69C243.8 229.16 238.82 226.39 232.74 226.39C228.68 226.39 225.38 227.51 222.83 229.76C220.28 232 219.01 234.94 219.01 238.56C219.01 243.23 221.74 247.01 227.21 249.9C228.74 250.7 231.23 251.87 234.68 253.4C238.49 255.06 241.07 256.26 242.42 256.99C249.74 260.99 253.39 266.27 253.39 272.84C253.39 278.37 251.33 282.89 247.22 286.39C243.1 289.83 238.03 291.55 232.01 291.55L231.99 291.56Z" fill="white"/>
<path d="M301.21 291.56C296.29 291.56 291.84 290.33 287.85 287.87C283.85 285.41 280.84 281.91 278.82 277.36L283.34 274.32C285.06 278.07 287.44 280.99 290.48 283.08C293.52 285.17 297.04 286.21 301.03 286.21C305.64 286.21 309.39 284.95 312.28 282.43C315.16 279.91 316.61 276.78 316.61 273.03C316.61 270.45 315.87 268.25 314.4 266.44C312.93 264.63 310.68 262.95 307.67 261.42C305.71 260.44 303.37 259.36 300.67 258.19C297.23 256.66 294.98 255.61 293.94 255.06C286.2 251.19 282.33 245.78 282.33 238.84C282.33 233.74 284.11 229.53 287.68 226.21C291.24 222.83 295.98 221.14 301.87 221.14C309.98 221.14 316.4 224.52 321.13 231.28L316.89 234.69C313.02 229.16 308.04 226.39 301.96 226.39C297.9 226.39 294.6 227.51 292.05 229.76C289.5 232 288.23 234.94 288.23 238.56C288.23 243.23 290.96 247.01 296.43 249.9C297.96 250.7 300.45 251.87 303.9 253.4C307.71 255.06 310.29 256.26 311.64 256.99C318.96 260.99 322.61 266.27 322.61 272.84C322.61 278.37 320.55 282.89 316.44 286.39C312.32 289.83 307.25 291.55 301.23 291.55L301.21 291.56Z" fill="white"/>
<path d="M395.6 290.45H354.4V222.33H395.42V227.68H360.02V253.3H393.02V258.55H360.02V285.1H395.6V290.45Z" fill="white"/>
<path d="M471.92 290.45H428.23V222.33H433.85V285.01H471.92V290.45Z" fill="white"/>
<path d="M171.87 264.53L170.79 261.75H170.83L171.87 264.53Z" fill="white"/>
</svg>
